<?xml version="1.0" encoding="UTF-8" standalone="no"?><!-- Generator: Gravit.io --><svg xmlns="http://www.w3.org/2000/svg" xmlns:xlink="http://www.w3.org/1999/xlink" style="isolation:isolate" viewBox="0 0 3021 2367" width="3021pt" height="2367pt"><defs><clipPath id="_clipPath_12IaZYprIK319Z4LdHrFUhFRpe947kOr"><rect width="3021" height="2367"/></clipPath></defs><g clip-path="url(#_clipPath_12IaZYprIK319Z4LdHrFUhFRpe947kOr)"><clipPath id="_clipPath_7vlKIQiyximSG5VsD0FdP18ke1srjjg2"><path d=" M -530 -816.5 L -530 3183.5 L 3470 3183.5 L 3470 -816.5 L -530 -816.5 Z " fill="rgb(255,255,255)"/></clipPath><g clip-path="url(#_clipPath_7vlKIQiyximSG5VsD0FdP18ke1srjjg2)"><path d=" M 426.599 611.65 C 382.6 776.35 349.6 944.05 328.4 1113.25 C 306.6 1101.55 282.3 1087.25 257.599 1071.15 L 257.599 1071.1 C -82.45 849.85 71.15 647.7 426.599 611.65 Z " fill="rgb(249,126,43)"/><path d=" M 237.198 1057.22 C 167.986 1008.95 97.43 946.64 74.188 870.93 C 76.034 865.32 78.045 859.89 80.222 854.6 C 95.841 865.34 111.604 870.09 127.303 870.09 C 172.324 870.1 216.898 831.1 256.663 782.62 C 243.064 839.65 235.533 898.57 234.122 958.74 C 234.121 958.79 234.12 958.82 234.119 958.87 C 234.116 959 234.113 959.14 234.11 959.27 C 234.107 959.4 234.104 959.53 234.101 959.67 C 234.1 959.71 234.099 959.75 234.098 959.79 C 233.381 991.95 234.411 1024.44 237.198 1057.22 Z " fill="rgb(213,106,41)"/><path d=" M 1432.01 2197.82 C 1359.22 2197.82 1271.92 2161.95 1197.5 2131.36 C 1180.36 2124.32 1164.18 2117.67 1149.03 2111.8 C 1141.72 2108.97 1136.74 2102.14 1136.28 2094.32 C 1134.51 2064.09 1146.47 2033.73 1169.1 2011.03 C 1192.37 1987.69 1223.6 1975.27 1254.96 1977.03 C 1265.98 1977.64 1274.43 1987.08 1273.82 1998.11 C 1273.21 2009.13 1263.83 2017.57 1252.74 2016.97 C 1232.84 2015.87 1212.66 2023.99 1197.43 2039.27 C 1186 2050.73 1178.78 2065 1176.72 2079.71 C 1188.25 2084.32 1200.23 2089.24 1212.71 2094.37 C 1309.1 2133.99 1429.09 2183.3 1490.82 2143.17 C 1519.62 2124.45 1535.08 2084.98 1536.76 2025.83 C 1537.07 2014.79 1546.31 2006.29 1557.32 2006.41 C 1568.36 2006.72 1577.06 2015.92 1576.74 2026.96 C 1574.67 2100.03 1553.09 2150.41 1512.62 2176.71 C 1489.48 2191.74 1461.97 2197.82 1432.01 2197.82 Z " fill="rgb(79,32,32)"/><path d=" M 71.056 860.6 C 49.386 772.6 105.71 714.35 185.446 675.9 C 104.541 718.14 60.9 777 68.545 845.41 C 68.445 845.32 68.35 845.24 68.25 845.15 C 68.592 847.37 68.977 849.59 69.401 851.78 C 69.859 854.7 70.412 857.65 71.056 860.6 Z " fill="rgb(255,213,232)"/><path d=" M 74.05 871.35 C 72.923 867.72 71.928 864.14 71.056 860.6 C 70.412 857.65 69.859 854.7 69.401 851.78 C 70.651 858.26 72.257 864.64 74.188 870.93 C 74.142 871.07 74.096 871.21 74.05 871.35 Z  M 80.222 854.6 C 76.322 851.92 72.425 848.86 68.545 845.41 C 60.9 777 104.541 718.14 185.446 675.9 C 223.023 657.78 265.791 644.05 308.057 633.67 C 298.392 654.67 289.669 676.04 281.885 697.76 C 194.555 723.49 115.826 768.1 80.222 854.6 Z " fill="rgb(253,203,170)"/><path d=" M 69.401 851.78 C 68.977 849.59 68.592 847.37 68.25 845.15 C 68.35 845.24 68.445 845.32 68.545 845.41 C 68.781 847.53 69.067 849.65 69.401 851.78 Z " fill="rgb(240,203,218)"/><path d=" M 74.188 870.93 C 72.257 864.64 70.651 858.26 69.401 851.78 C 69.067 849.65 68.781 847.53 68.545 845.41 C 72.425 848.86 76.322 851.92 80.222 854.6 C 78.045 859.89 76.034 865.32 74.188 870.93 Z " fill="rgb(238,195,169)"/><path d=" M 400.149 634.86 C 223.499 657.75 109.476 721.24 93.011 807.11 C 76.316 894.17 158.011 995.75 312.605 1081.88 C 332.708 931.67 362.103 781.56 400.149 634.86 Z  M 328.699 1133.25 C 325.53 1133.25 322.366 1132.5 319.471 1130.99 C 225.315 1082.03 154.129 1027.93 107.884 970.17 C 62.034 912.91 43.304 853.92 53.724 799.58 C 74.896 689.17 210.198 613.42 424.944 591.75 C 431.473 591.09 437.928 593.69 442.186 598.69 C 446.443 603.7 447.972 610.48 446.272 616.82 C 402.537 780.14 369.656 948 348.543 1115.75 C 347.728 1122.24 343.782 1127.92 337.986 1130.96 C 335.081 1132.49 331.888 1133.25 328.699 1133.25 Z " fill="rgb(79,32,32)"/><path d=" M 2827.65 1248.75 C 2661 1794.6 2109.35 2092.8 1583.8 2226.8 C 1543.35 2230.05 1502.8 2225.1 1464.3 2211.85 C 1128.7 2098.4 790.45 1961.05 554.85 1697.15 L 554.75 1697.05 L 554.75 1697 C 411.55 1541.95 303 1352.4 267.05 1143.5 C 262.9 1119.55 259.75 1095.25 257.55 1071.05 C 243.95 920.35 266.95 765 332.401 628.15 C 560.5 149.2 1267.8 73.2 1559.6 572.85 C 1559.65 572.75 1559.75 572.65 1559.75 572.6 C 1786.1 177.251 2315.45 127.2 2633 418.5 C 2857.2 623.85 2912.65 965.2 2827.65 1248.75 Z " fill="rgb(79,32,32)"/><path d=" M 965.12 255.91 C 730.52 255.91 474.06 365.25 350.965 636.51 C 350.897 636.67 350.824 636.82 350.75 636.96 C 195.213 958.1 284.734 1387.86 568.44 1682.07 C 784.37 1917.07 1110.3 2093.42 1537.51 2206.6 C 1812.59 2179.77 2226.38 1973.34 2430.64 1798.7 C 2189.89 1603.93 1947.16 1432.54 1708.93 1289.08 C 1700.92 1284.26 1697.32 1274.52 1700.27 1265.65 C 1740.19 1145.44 1736.65 985.49 1607.03 897.07 C 1601.45 893.27 1598.17 886.91 1598.3 880.16 C 1605.47 513.44 1359.02 326.38 1126 273.6 C 1074.97 262.04 1020.65 255.91 965.12 255.91 Z  M 1535.85 2246.85 C 1534.13 2246.85 1532.42 2246.63 1530.75 2246.19 C 1094.32 2131.06 760.76 1950.48 539.32 1709.48 C 402.747 1567.86 303.201 1385.59 259.349 1196.6 C 211.883 992.04 231.004 792.58 314.642 619.76 C 385.589 463.55 507.23 344.86 666.44 276.52 C 812.01 214.02 978.36 199.14 1134.84 234.59 C 1280.19 267.51 1404.07 340.23 1493.07 444.87 C 1589.33 558.06 1639.49 704.96 1638.43 870.3 C 1751.78 953.57 1791.24 1101.92 1743.05 1262.97 C 1984.64 1409.39 2230.56 1584.15 2474.28 1782.59 C 2478.81 1786.28 2481.5 1791.76 2481.64 1797.6 C 2481.79 1803.44 2479.37 1809.05 2475.04 1812.96 C 2272.37 1995.58 1828.44 2219.9 1537.69 2246.77 C 1537.08 2246.82 1536.47 2246.85 1535.85 2246.85 Z " fill="rgb(79,32,32)"/><path d=" M 2461.35 1798.1 C 2257.1 1982.05 1817.35 2200.65 1535.85 2226.85 C 1173.85 2131.7 807.5 1971.5 554.9 1697.15 L 554.8 1697.05 L 554.8 1697 C 518.35 1641.5 504.95 1565.45 500.55 1494.45 C 363.3 1428.75 285.4 1289.9 267.099 1143.55 C 265.951 1136.95 264.6 1128.7 263.701 1122.05 L 263.65 1122.05 C 239.299 955.5 259.7 780.6 332.45 628.25 C 623.7 6.2 1632.65 144.75 1618 880.55 C 1746.35 968 1767 1127.25 1718.95 1271.95 C 1978.9 1428.45 2225.85 1606.35 2461.35 1798.1 Z " fill="rgb(255,255,255)"/><path d=" M 1217.65 698.85 C 1151.35 766.65 1047.95 793.4 954.85 780.4 C 911.65 700.1 776.35 502.3 873.95 433.15 C 967.45 377.75 1083.9 364.45 1181.6 377.8 C 1286.4 454.85 1314.8 602.7 1217.65 698.85 Z " fill="rgb(140,140,140)"/><path d=" M 2219.4 1609.3 C 2144.85 1788 1912.5 1977.25 1723.45 1845.5 C 1638.05 1780.5 1642.9 1679.65 1690.3 1593.55 C 1727.65 1502.1 1659.85 1455.1 1572.55 1452.8 C 1632.6 1402 1684.65 1342.45 1726.7 1276.55 C 1896 1378.9 2059.85 1490.25 2219.4 1609.3 Z " fill="rgb(249,126,43)"/><path d=" M 1556.45 2026.4 C 1549.2 2281.25 1303.25 2150.2 1155.95 2093.15 C 1152.9 2040.25 1201.2 1994.1 1253.55 1997 C 1292.8 1998.75 1326.3 2024.25 1362.45 2039.6 C 1424.3 2065.85 1497.95 2060.05 1556.45 2026.4 Z " fill="rgb(249,126,43)"/><path d=" M 1779.15 1223.6 C 1770.64 1249.43 1758.85 1274.13 1744.94 1297.49 C 1741.41 1303.3 1737.79 1309.06 1734.1 1314.77 L 1722.52 1331.55 L 1710.1 1347.7 L 1697.07 1363.34 C 1679.1 1383.66 1659.56 1402.54 1638.33 1419.21 C 1617.18 1435.93 1594.54 1450.71 1570.44 1462.41 C 1566.57 1464.28 1561.92 1462.67 1560.04 1458.8 C 1558.51 1455.66 1559.3 1451.99 1561.73 1449.72 L 1561.77 1449.69 C 1580.81 1431.97 1599.11 1414.09 1616.32 1395.38 C 1633.46 1376.62 1649.71 1357.28 1664.62 1337.03 L 1675.7 1321.81 L 1686.27 1306.25 L 1696.52 1290.51 C 1699.71 1285.12 1702.97 1279.78 1706.32 1274.5 C 1719.13 1252.99 1730.81 1230.88 1742.15 1208.4 L 1742.2 1208.3 C 1747.19 1198.41 1759.25 1194.44 1769.14 1199.43 C 1778.12 1203.96 1782.22 1214.33 1779.15 1223.6 Z " fill="rgb(79,32,32)"/><path d=" M 1201.05 651.4 C 1130.85 603.15 1057.6 559.45 981.8 520.6 C 962.5 506.85 936.35 514.45 931.75 539.05 C 939.05 703.05 1074.5 760 1201.05 651.4 Z " fill="rgb(255,168,110)"/><path d=" M 525.04 1634.21 C 460.443 1558.59 407.736 1475.61 367.646 1388.82 C 403.009 1432.48 447.313 1468.97 500.55 1494.45 C 503.45 1541.29 510.27 1590.32 525.04 1634.21 Z " fill="rgb(79,32,32)"/><path d=" M 2445.72 1785.41 C 2437.32 1778.61 2428.91 1771.82 2420.48 1765.05 C 2420.5 1765.05 2420.47 1765.05 2420.49 1765.05 C 2428.92 1771.82 2437.33 1778.6 2445.73 1785.4 L 2445.72 1785.41 Z " fill="rgb(79,32,32)"/><path d=" M 1536.73 2206.34 C 1502.47 2197.25 1468.89 2187.77 1435.94 2177.87 C 1503.34 2176.34 1553.24 2139.11 1556.45 2026.4 C 1522.58 2045.88 1483.65 2056.03 1444.86 2056.03 C 1416.64 2056.02 1388.49 2050.65 1362.45 2039.6 C 1347.88 2033.41 1333.74 2025.58 1319.48 2018.31 C 1332.21 2020.52 1344.27 2021.58 1355.7 2021.58 C 1500.97 2021.57 1542.84 1851.15 1531.35 1722.95 C 1599.85 1809.75 1558.4 1962.15 1662.2 2024.35 C 1691.47 2035.33 1722.05 2040.11 1753.16 2040.11 C 1864.98 2040.11 1983.62 1978.43 2072.45 1921.6 C 2112.74 1893.31 2107.7 1832.54 2063.85 1810.12 C 2093.9 1786.64 2121.55 1759.26 2145.71 1729.83 C 2212.23 1754.92 2283.21 1767.34 2351.34 1767.34 C 2366.54 1767.34 2381.63 1766.72 2396.47 1765.48 C 2399.13 1765.57 2401.75 1765.62 2404.4 1765.62 C 2409.78 1765.62 2415.16 1765.43 2420.48 1765.05 C 2428.91 1771.82 2437.32 1778.61 2445.72 1785.41 C 2180.29 2018.63 1831.66 2154.38 1536.73 2206.34 Z  M 1156.51 2077.66 C 911.73 1973.67 714.82 1841.32 568.44 1682.02 C 553.43 1666.45 538.96 1650.5 525.04 1634.21 C 510.27 1590.32 503.45 1541.29 500.55 1494.45 C 447.313 1468.97 403.009 1432.48 367.646 1388.82 C 340.935 1330.99 319.818 1271.46 304.545 1211.34 C 356.501 1313.76 433.487 1424.43 542.15 1461.1 C 535.25 1642.08 661.73 1700.16 819.29 1700.16 C 984.91 1700.16 1184.87 1635.99 1300.4 1582.9 C 1371.25 1550.35 1460.15 1504.7 1507.45 1442.75 C 1764.35 1139.75 1398.8 890.45 1523.15 599.2 C 1500.26 547.52 1473.48 497.98 1443.08 451.06 C 1480.67 489.99 1514.14 534.11 1542.68 582.99 C 1543.72 584.77 1545.01 586.35 1546.5 587.7 C 1536.26 679.87 1541.43 776.93 1561.96 876.73 C 1562.09 877.38 1562.26 878.02 1562.46 878.65 C 1562.55 878.95 1562.64 879.23 1562.73 879.52 C 1589.38 1008.21 1641.04 1137.58 1715.4 1258.84 C 1712.43 1264.09 1709.41 1269.31 1706.32 1274.5 C 1702.97 1279.78 1699.71 1285.12 1696.52 1290.51 L 1686.27 1306.25 L 1675.7 1321.81 L 1664.62 1337.03 C 1649.71 1357.28 1633.46 1376.62 1616.32 1395.38 C 1599.11 1414.09 1580.81 1431.97 1561.77 1449.69 L 1561.73 1449.72 C 1559.3 1451.99 1558.51 1455.66 1560.04 1458.8 C 1561.39 1461.58 1564.16 1463.19 1567.05 1463.19 C 1568.19 1463.19 1569.34 1462.94 1570.44 1462.41 C 1576.13 1459.65 1581.73 1456.72 1587.25 1453.63 C 1590.79 1453.94 1594.29 1454.32 1597.74 1454.79 C 1536.98 1511.28 1467.84 1558.6 1393.05 1593.75 C 1408.75 1589 1424.45 1584.4 1440.3 1580.05 C 1345.55 1676.3 1226.9 1748.55 1098.3 1789.6 C 1038.2 1808.8 1026.55 1889.05 1078.45 1924.95 C 1125.83 1957.72 1183.07 1980.44 1239.54 1997.38 C 1198 2001.92 1161.91 2036.19 1156.51 2077.66 Z " fill="rgb(220,210,210)"/><path d=" M 2063.85 1810.12 C 2063.83 1810.11 2063.82 1810.11 2063.8 1810.1 C 1871.9 1715.64 1817.7 1499.03 1730.3 1320.28 L 1734.1 1314.77 C 1736.98 1310.32 1739.82 1305.83 1742.6 1301.31 C 1744.87 1304.71 1747.15 1308.09 1749.46 1311.47 C 1783.92 1363.67 1824.57 1410.17 1863.88 1455.14 L 1868.33 1460.23 C 1915.48 1594.24 2023.06 1683.57 2145.71 1729.83 C 2121.55 1759.26 2093.9 1786.64 2063.85 1810.12 Z  M 1597.74 1454.79 C 1594.29 1454.32 1590.79 1453.94 1587.25 1453.63 C 1598.96 1447.08 1610.29 1439.84 1621.26 1432.03 C 1613.57 1439.77 1605.72 1447.36 1597.74 1454.79 Z " fill="rgb(215,107,41)"/><path d=" M 1435.94 2177.87 C 1336.83 2148.11 1243.62 2114.67 1156.51 2077.66 C 1161.91 2036.19 1198 2001.92 1239.54 1997.38 C 1266.74 2005.54 1293.75 2012.35 1319.4 2018.3 C 1319.43 2018.31 1319.45 2018.31 1319.48 2018.31 C 1333.74 2025.58 1347.88 2033.41 1362.45 2039.6 C 1388.49 2050.65 1416.64 2056.02 1444.86 2056.03 C 1483.65 2056.03 1522.58 2045.88 1556.45 2026.4 C 1553.24 2139.11 1503.34 2176.34 1435.94 2177.87 Z " fill="rgb(215,107,41)"/><path d=" M 1567.05 1463.19 C 1564.16 1463.19 1561.39 1461.58 1560.04 1458.8 C 1558.51 1455.66 1559.3 1451.99 1561.73 1449.72 L 1561.77 1449.69 C 1580.81 1431.97 1599.11 1414.09 1616.32 1395.38 C 1633.46 1376.62 1649.71 1357.28 1664.62 1337.03 L 1675.7 1321.81 L 1686.27 1306.25 L 1696.52 1290.51 C 1699.71 1285.12 1702.97 1279.78 1706.32 1274.5 C 1709.41 1269.31 1712.43 1264.09 1715.4 1258.84 C 1724.16 1273.12 1733.22 1287.28 1742.6 1301.31 C 1739.82 1305.83 1736.98 1310.32 1734.1 1314.77 L 1730.3 1320.28 C 1728.09 1315.77 1725.85 1311.27 1723.6 1306.8 C 1693.69 1351.72 1659.33 1393.73 1621.26 1432.03 C 1610.29 1439.84 1598.96 1447.08 1587.25 1453.63 C 1581.73 1456.72 1576.13 1459.65 1570.44 1462.41 C 1569.34 1462.94 1568.19 1463.19 1567.05 1463.19 Z " fill="rgb(79,32,32)"/><path d=" M 2871.25 1033 C 2850.8 1267.6 2745 1492 2588.45 1666.85 C 2542.35 1722.4 2468.95 1738.25 2394.4 1744.25 C 2185.85 1761.6 1958.75 1657.65 1886.85 1453.55 C 1848.5 1403.4 1801 1356.25 1765.65 1300.15 C 1621.7 1085.25 1522.7 805.95 1575.4 549 C 1739.4 313.15 1995.9 184.3 2269.65 239.6 L 2269.7 239.65 C 2639.25 291.05 2901.45 665.5 2871.25 1033 Z " fill="rgb(255,255,255)"/><path d=" M 2350.89 1727.36 C 2170.86 1727.36 1970.08 1634.59 1904.88 1443.54 C 1904.04 1441.08 1902.73 1438.81 1901.01 1436.85 L 1894 1428.82 C 1855.56 1384.85 1815.82 1339.38 1782.67 1289.18 C 1713.21 1187.32 1660.78 1078.54 1626.92 968.7 C 1662.5 998.3 1708.35 1020.83 1756.78 1031.36 C 1672.75 1084.21 1744.33 1258.06 1882.31 1258.06 C 1924.65 1258.06 1973.23 1241.7 2025.5 1200.45 C 1895.92 1415.1 2179.84 1620.79 2393.33 1620.79 C 2503.92 1620.79 2595.6 1565.61 2601.15 1427.9 C 2735.66 1409.58 2813.77 1220.96 2832.98 1017.8 C 2835.54 1069.36 2833.38 1122.39 2826 1176.43 C 2824.07 1185.32 2821.99 1194.2 2819.77 1203.07 C 2802.06 1265.73 2777.95 1331.25 2749.7 1392.52 C 2712.55 1469.71 2667.2 1541.15 2615.47 1606.98 C 2559.06 1671.34 2486.96 1725.62 2404.29 1725.62 L 2404.29 1725.62 C 2401.81 1725.62 2399.29 1725.57 2396.79 1725.47 C 2396.52 1725.45 2396.25 1725.45 2395.99 1725.45 C 2395.42 1725.45 2394.86 1725.47 2394.3 1725.52 C 2380.01 1726.75 2365.53 1727.36 2350.89 1727.36 Z  M 1914.85 1086.06 C 1876.5 1086.06 1838.96 1070.53 1810.09 1037.83 C 1810.2 1037.83 1810.33 1037.84 1810.44 1037.84 C 1812.48 1037.89 1814.5 1037.91 1816.52 1037.91 C 1923.69 1037.91 2008.22 973.69 2049.01 860.9 C 2075.59 787.34 2097.23 711.23 2118.16 637.62 L 2121.68 625.23 C 2158.72 495.22 2210 453.85 2255.25 417.36 C 2277.98 399.02 2299.8 381.42 2315.38 354.95 C 2311.8 385.44 2301.82 414.77 2289 433.9 C 2178.2 608.7 2151.75 699.75 2085.9 937.1 C 2059.31 1033 1985.71 1086.06 1914.85 1086.06 Z " fill="rgb(220,210,210)"/><path d=" M 2310.2 316.3 C 2279.3 418.25 2166.7 393.1 2102.15 619.75 C 2079.75 698.45 2057.7 777.1 2029.9 854.1 C 1933.1 1121.9 1624.65 1011.9 1581.25 872.7 C 1561.15 774.9 1555.35 675.7 1567.35 579.75 C 1721.7 281.5 2038.9 192.25 2269.6 239.6 C 2294.6 258.6 2313.7 284.65 2310.2 316.3 Z " fill="rgb(181,80,64)"/><path d=" M 2829.9 1242.1 L 2829.95 1242.1 L 2829.9 1242.1 Z  M 971.12 251.96 C 961.38 251.96 951.62 252.16 941.81 252.57 C 684.98 263.38 458.524 410.6 350.809 636.8 C 195.213 958.05 284.734 1387.81 568.44 1682.02 C 784.23 1916.86 1109.89 2093.14 1536.73 2206.34 C 2014.41 2122.19 2632.97 1818.19 2810.74 1236.37 C 2899.87 931.32 2817.77 603.8 2606.43 421.34 C 2450.3 285.31 2242.94 227.29 2037.5 262.08 C 1839.68 295.58 1676.25 409.49 1577.32 582.81 C 1573.78 589.02 1567.2 592.87 1560.05 592.9 L 1559.95 592.9 C 1552.84 592.9 1546.26 589.13 1542.68 582.99 C 1420.76 374.17 1208.66 251.96 971.12 251.96 Z  M 1535.85 2246.8 C 1534.13 2246.8 1532.42 2246.58 1530.75 2246.13 C 1094.31 2130.99 760.74 1950.42 539.32 1709.43 C 402.747 1567.81 303.201 1385.54 259.349 1196.55 C 211.863 991.9 231.023 792.36 314.754 619.48 C 428.796 379.98 668.45 224.03 940.13 212.61 C 1193.38 201.91 1422.7 321.68 1559.77 534.39 C 1665.97 366.53 1832.04 256.31 2030.82 222.64 C 2248.14 185.83 2467.49 247.25 2632.64 391.12 C 2855.58 583.59 2942.6 927.86 2849.09 1247.71 L 2849.03 1247.95 C 2769.47 1508.42 2591.94 1741.69 2335.63 1922.51 C 2110.49 2081.34 1827.67 2196.4 1539.28 2246.51 C 1538.14 2246.7 1537 2246.8 1535.85 2246.8 Z " fill="rgb(79,32,32)"/><path d=" M 1217.95 698.85 C 1151.65 766.65 1048.25 793.4 955.15 780.4 C 913.8 706.6 776.2 495.6 874.25 433.15 C 968.2 377.9 1081.65 364.45 1181.9 377.8 C 1287.35 456.65 1315.2 601.1 1217.95 698.85 Z " fill="rgb(249,126,43)"/><path d=" M 840.16 522.95 C 836.3 496.46 839.02 471.36 854.93 451.03 C 847.35 461.35 842.87 473.55 840.9 487.1 C 839.03 498.3 838.89 510.34 840.16 522.95 Z " fill="rgb(255,255,255)"/><path d=" M 843.44 539.92 C 842.1 534.22 840.98 528.55 840.16 522.95 C 838.89 510.34 839.03 498.3 840.9 487.1 C 838.58 503.1 839.76 521 843.44 539.92 Z " fill="rgb(209,209,209)"/><path d=" M 883.45 649.75 C 883.42 649.66 883.38 649.56 883.35 649.47 C 883.38 649.53 883.41 649.59 883.43 649.65 C 883.44 649.68 883.44 649.72 883.45 649.75 Z  M 859.03 588.2 C 852.92 572.36 847.25 556.03 843.44 539.92 C 839.76 521 838.58 503.1 840.9 487.1 C 842.87 473.55 847.35 461.35 854.93 451.03 C 859.98 444.59 866.35 438.62 874.25 433.25 C 945.85 390.8 1030.94 373.1 1110.74 373.1 C 1129.34 373.1 1147.66 374.07 1165.45 375.9 C 1127.85 385 1067.8 393.85 1011.4 410.25 C 1012.2 410.9 1012.75 411.65 1013.05 412.5 C 1015.75 420.2 997.35 433.8 971.9 442.85 C 957.8 447.87 944.48 450.46 934.95 450.46 C 929.2 450.46 924.83 449.52 922.5 447.6 C 890.95 467.75 869.35 494.3 867.95 530.2 C 869.14 542.87 870.47 555.53 871.94 568.18 C 861.48 557.09 851.93 544.88 843.45 531.55 C 847.55 550.82 852.81 569.69 859.03 588.2 Z " fill="rgb(253,203,170)"/><path d=" M 952.56 776.18 C 931.85 742.44 911.88 708.12 894.41 672.78 C 900.33 684.05 906.35 695.03 912.27 705.59 C 924.07 726.91 935.43 746.23 944.66 762.12 C 947.5 767.09 950.15 771.79 952.56 776.18 Z " fill="rgb(220,210,210)"/><path d=" M 1001.15 783.58 C 985.68 783.58 970.28 782.51 955.15 780.4 C 954.28 778.99 953.42 777.59 952.56 776.18 C 950.15 771.79 947.5 767.09 944.66 762.12 C 948.59 768.87 952.13 775 955.15 780.4 C 970.28 782.51 985.68 783.58 1001.15 783.58 L 1001.15 783.58 Z  M 912.27 705.59 C 906.35 695.03 900.33 684.05 894.41 672.78 C 892.46 668.81 890.53 664.85 888.64 660.86 C 896.38 676.36 904.43 691.42 912.27 705.59 Z " fill="rgb(128,118,118)"/><path d=" M 1275.35 589.16 C 1277.6 575.19 1278.28 561.09 1277.48 547.05 C 1277.92 546.46 1278.36 545.85 1278.8 545.25 C 1279.36 559.92 1278.15 574.66 1275.35 589.16 Z " fill="rgb(220,210,210)"/><path d=" M 1001.32 783.58 C 1001.26 783.58 1001.21 783.58 1001.15 783.58 C 985.68 783.58 970.28 782.51 955.15 780.4 C 952.13 775 948.59 768.87 944.66 762.12 C 935.43 746.23 924.07 726.91 912.27 705.59 C 904.43 691.42 896.38 676.36 888.64 660.86 C 886.87 657.13 885.14 653.4 883.43 649.65 C 878.93 622.59 875.1 595.42 871.94 568.18 C 887.52 584.71 905.09 598.76 924.03 610.28 C 939.87 660.1 970.5 696.96 1012.65 715.22 C 1031.31 723.29 1051.09 727.26 1071.49 727.26 C 1118.08 727.26 1167.83 706.52 1214.38 666.57 C 1219.09 662.53 1221.65 656.53 1221.32 650.33 C 1220.99 644.13 1217.8 638.43 1212.68 634.91 C 1205.48 629.97 1198.24 625.06 1190.97 620.2 C 1224.14 603.24 1253.94 578.9 1277.48 547.05 C 1278.28 561.09 1277.6 575.19 1275.35 589.16 C 1267.45 629.98 1246.95 668.89 1217.95 698.85 L 1217.95 698.85 C 1162.47 755.59 1080.98 783.58 1001.32 783.58 Z  M 883.35 649.47 C 874.24 629.43 866.03 609.04 859.03 588.2 C 867.54 610.24 876.92 631.32 883.35 649.47 Z " fill="rgb(215,107,41)"/><path d=" M 883.43 649.65 C 883.41 649.59 883.38 649.53 883.35 649.47 C 876.92 631.32 867.54 610.24 859.03 588.2 C 852.81 569.69 847.55 550.82 843.45 531.55 C 851.93 544.88 861.48 557.09 871.94 568.18 C 875.1 595.42 878.93 622.59 883.43 649.65 Z " fill="rgb(218,169,142)"/><path d=" M 2056.9 1079.7 C 2061.65 801.9 2474.9 801.9 2479.6 1079.7 C 2474.9 1357.55 2061.65 1357.5 2056.9 1079.7 Z " fill="rgb(181,80,64)"/><path d=" M 956.94 801.97 C 938.26 774.42 918.95 746.48 901.08 717.53 C 883.08 688.64 866.28 658.72 851.79 627.16 C 837.65 595.51 824.98 562.29 820.78 525.12 C 818.99 506.63 818.98 486.7 825.75 466.9 C 827.53 462 829.19 457.08 831.87 452.44 C 833.13 450.1 834.26 447.7 835.69 445.47 L 840.31 438.93 L 842.66 435.69 C 843.51 434.67 844.45 433.73 845.35 432.75 L 850.85 426.99 C 854.65 423.34 858.91 420.33 862.98 417.06 C 863.19 416.89 863.41 416.74 863.64 416.61 L 864.24 416.25 C 888.7 401.87 914.84 390.73 941.5 381.92 C 968.17 373.02 995.67 367.25 1023.24 363.42 C 1050.86 359.84 1078.67 358.42 1106.31 359.52 C 1133.94 360.51 1161.43 363.8 1188.3 369.62 C 1193.18 370.68 1196.28 375.49 1195.22 380.38 C 1194.26 384.83 1190.17 387.8 1185.75 387.48 L 1185.7 387.48 C 1159.22 385.61 1132.77 385.31 1106.51 386.7 C 1080.25 388.21 1054.18 391.2 1028.61 396.3 C 1002.98 401.13 977.96 408.31 953.69 417.06 C 929.43 425.89 906.24 437.13 884.27 450.15 L 885.52 449.34 C 874.92 456.98 867.78 467.02 863.78 479.34 C 859.74 491.61 859.11 506.21 860.62 521.09 C 862.02 536.05 865.57 551.38 869.96 566.67 C 874.35 581.98 880.01 597.21 886.21 612.31 C 898.44 642.62 913.13 672.4 928.3 702.14 C 943.44 731.94 959.72 761.25 974.26 792.33 C 976.59 797.3 974.44 803.21 969.47 805.54 C 964.99 807.64 959.73 806.1 957.04 802.12 L 956.94 801.97 Z " fill="rgb(79,32,32)"/><path d=" M 1201.35 651.45 C 982.85 832.65 881.05 522.25 957.55 513.5 C 1044.85 542.8 1123.2 602.3 1201.35 651.45 Z " fill="rgb(240,132,132)"/><path d=" M 952.16 540.87 C 955.85 608.97 983.6 659.05 1028.55 678.51 C 1069.32 696.16 1118.92 686.62 1167.38 652.56 C 1104.92 610.9 1039.64 572.56 972.98 538.4 C 972.12 537.96 971.29 537.45 970.5 536.89 C 966.32 533.91 961.35 533.01 957.55 534.55 C 954.94 535.6 953.13 537.72 952.16 540.87 Z  M 1071.49 727.26 C 1051.09 727.26 1031.31 723.29 1012.65 715.22 C 952.53 689.19 915.87 625.3 912.07 539.94 C 912 538.41 912.11 536.88 912.39 535.37 C 915.7 517.68 926.7 503.86 942.59 497.45 C 958.7 490.94 977.21 493.19 992.39 503.4 C 1068.26 542.35 1142.37 586.59 1212.68 634.91 C 1217.8 638.43 1220.99 644.13 1221.32 650.33 C 1221.65 656.53 1219.09 662.53 1214.38 666.57 C 1167.83 706.52 1118.08 727.26 1071.49 727.26 Z " fill="rgb(79,32,32)"/><path d=" M 2340.5 1766.11 C 2338.09 1766.11 2335.66 1765.67 2333.28 1764.75 C 2322.98 1760.77 2317.86 1749.19 2321.85 1738.88 C 2328.31 1722.17 2334.42 1706.39 2343.07 1680.43 C 2346.57 1669.94 2357.93 1664.3 2368.37 1667.78 C 2378.85 1671.27 2384.51 1682.59 2381.02 1693.07 C 2372.69 1718.07 2366.95 1733.16 2359.15 1753.32 C 2356.09 1761.25 2348.52 1766.11 2340.5 1766.11 Z " fill="rgb(79,32,32)"/><path d=" M 827.92 1665.29 C 802.03 1665.29 775.34 1654.63 757.73 1629.33 C 751.42 1620.26 753.66 1607.8 762.72 1601.49 C 771.79 1595.17 784.26 1597.41 790.56 1606.48 C 804.9 1627.08 832.26 1628.99 850.74 1620.32 C 858.99 1616.44 877.42 1604.61 870.22 1578.52 C 867.63 1569.14 872.17 1559.26 880.97 1555.11 C 889.76 1550.96 900.29 1553.75 905.87 1561.71 C 929.11 1594.85 967.13 1598.92 994.95 1591.68 C 1022.79 1584.44 1054.01 1562.34 1058.16 1522.05 C 1059.29 1511.07 1069.01 1503.03 1080.1 1504.21 C 1091.09 1505.33 1099.08 1515.16 1097.94 1526.15 C 1092.8 1576.13 1056.33 1617.04 1005.03 1630.39 C 970.04 1639.5 934.81 1634.04 906.8 1616.59 C 900.03 1633.54 886.63 1647.66 867.73 1656.53 C 855.74 1662.16 841.95 1665.29 827.92 1665.29 Z " fill="rgb(79,32,32)"/><path d=" M 1443.22 1574.2 C 1404.47 1602.21 1363.07 1626.24 1320.5 1647.7 C 1299.29 1658.65 1277.55 1668.43 1255.76 1678.12 C 1244.78 1682.79 1233.8 1687.44 1222.71 1691.81 C 1211.66 1696.3 1200.54 1700.63 1189.35 1704.76 C 1144.6 1721.32 1099.06 1735.88 1052.8 1748.21 C 1006.57 1760.6 959.53 1770.55 911.7 1776.95 C 887.85 1780.43 863.67 1782.38 839.46 1783.91 L 821.21 1784.48 C 815.13 1784.7 809.04 1784.81 802.92 1784.65 L 784.59 1784.42 L 766.21 1783.4 C 741.7 1781.68 717.07 1778.83 692.68 1773.03 L 683.53 1770.99 L 674.45 1768.38 L 665.38 1765.74 C 662.35 1764.92 659.35 1763.94 656.38 1762.78 L 638.53 1756.18 L 621.08 1748.17 C 598.19 1736.92 576.19 1722.54 557.46 1704.18 C 538.7 1685.91 523.28 1664.21 511.95 1641.02 C 500.54 1617.81 493.05 1593.3 488.26 1568.77 C 483.42 1544.21 481.5 1519.54 480.86 1495.12 L 480.86 1495.11 L 491.84 1512.25 C 457.451 1494.85 424.982 1473.16 396.053 1447.31 C 367.063 1421.54 341.857 1391.51 321.147 1358.82 C 300.398 1326.13 284.139 1290.84 272 1254.43 C 265.938 1236.21 260.896 1217.71 256.709 1199.06 C 254.883 1189.73 252.615 1180.29 251.172 1171.05 L 248.999 1157.19 L 247.915 1150.26 L 247.373 1146.79 C 247.16 1144.99 246.987 1142.94 246.867 1141.02 C 246.187 1130.04 254.533 1120.59 265.513 1119.9 C 275.838 1119.26 284.81 1126.61 286.414 1136.61 L 286.831 1139.28 C 286.893 1139.66 286.865 1139.91 286.86 1140.41 L 287.388 1143.79 L 288.445 1150.54 L 290.555 1164.05 C 291.958 1173.06 294.053 1181.59 295.757 1190.38 C 299.663 1207.76 304.344 1224.93 309.941 1241.76 C 321.152 1275.39 336.057 1307.67 354.902 1337.36 C 373.726 1367.06 396.477 1394.17 422.71 1417.49 C 448.889 1440.87 478.34 1460.59 509.86 1476.54 C 516.45 1479.88 520.4 1486.36 520.82 1493.23 L 520.84 1493.69 L 520.84 1493.71 C 523.6 1538.77 531.36 1583.49 551 1621.35 C 560.76 1640.23 573.4 1657.15 588.67 1671.44 C 603.84 1685.84 621.82 1697.49 641.25 1706.72 C 660.42 1716.29 681.59 1722.4 703 1727.41 C 724.46 1732.47 746.79 1734.97 769.21 1736.47 L 786.09 1737.36 L 803.07 1737.5 C 808.72 1737.63 814.4 1737.51 820.09 1737.28 L 837.14 1736.75 C 859.91 1735.39 882.72 1733.67 905.48 1730.43 C 951.04 1724.55 996.33 1715.02 1041.21 1703.71 C 1086.09 1692.32 1130.53 1678.7 1174.28 1663.09 C 1261.88 1632.07 1347.81 1596.15 1431.68 1555.1 L 1431.74 1555.07 C 1437.29 1552.36 1443.99 1554.65 1446.71 1560.21 C 1449.14 1565.17 1447.56 1571.07 1443.22 1574.2 Z " fill="rgb(79,32,32)"/><path d=" M 1533.65 1706.95 C 1538.64 1729.67 1544.61 1752.82 1549.87 1776.05 C 1555.27 1799.29 1560.22 1822.73 1564.6 1846.35 C 1568.82 1870 1572.8 1893.8 1575.38 1917.9 C 1578.09 1941.98 1580.05 1966.3 1580.13 1990.91 C 1580.26 2015.5 1579.19 2040.43 1574.76 2065.53 C 1570.31 2090.52 1563.18 2116.15 1548.73 2139.98 C 1541.49 2151.81 1532.3 2163.03 1521.12 2172.38 C 1510 2181.8 1496.81 2188.88 1483.23 2193.52 C 1455.77 2202.81 1427.85 2202.23 1402.19 2198.49 C 1401.64 2198.41 1401.09 2198.3 1400.55 2198.17 L 1400.23 2198.09 C 1333.73 2181.55 1268.04 2161.56 1203.63 2137.67 C 1139.31 2113.59 1076.37 2085.3 1015.93 2051.89 C 955.61 2018.39 897.48 1979.82 845.48 1933.29 C 793.53 1886.99 746.97 1833.1 713.17 1771.12 C 707.89 1761.42 711.46 1749.27 721.16 1743.98 C 730.67 1738.79 742.53 1742.13 747.98 1751.4 L 748.03 1751.48 C 780.93 1807.66 824.63 1857.4 874.42 1900.32 C 924.35 1943.15 979.6 1980.21 1037.84 2012.15 C 1096.08 2044.13 1157.22 2071.2 1219.76 2094.6 C 1282.26 2118.2 1346.3 2138.02 1411.17 2154.61 L 1409.21 2154.21 C 1430.33 2157.59 1451.35 2157.73 1469.21 2151.82 C 1487.15 2146.17 1501.5 2134.14 1512.03 2117.32 C 1522.6 2100.54 1529.09 2079.68 1533.14 2058.06 C 1537.12 2036.34 1538.99 2013.64 1539.36 1990.71 C 1540.13 1944.8 1536.27 1898.06 1531.07 1851.31 C 1528.52 1827.91 1525.45 1804.48 1522.51 1780.92 C 1519.58 1757.33 1516.37 1733.81 1514.76 1709.46 C 1514.41 1704.19 1518.39 1699.65 1523.65 1699.3 C 1528.43 1698.98 1532.62 1702.24 1533.61 1706.77 L 1533.65 1706.95 Z " fill="rgb(79,32,32)"/><path d=" M 2832.98 1017.8 C 2816.4 684.33 2602.72 411.91 2330.13 320.12 C 2330.23 319.63 2330.31 319.13 2330.36 318.63 C 2332.19 303.09 2329.73 287.72 2323.26 273.09 C 2328.55 274.42 2333.83 275.82 2339.09 277.28 C 2547.46 342.33 2719.25 511.96 2801.37 716.04 C 2816.58 759.95 2828.04 805.77 2835.59 852.82 C 2839.06 906.82 2838.17 962.84 2832.98 1017.8 Z " fill="rgb(255,255,255)"/><path d=" M 2826 1176.43 C 2833.38 1122.39 2835.54 1069.36 2832.98 1017.8 C 2838.17 962.84 2839.06 906.82 2835.59 852.82 C 2852.31 957.16 2849.74 1067.53 2826 1176.43 Z " fill="rgb(241,237,237)"/><path d=" M 2824.89 1184.35 C 2825.27 1181.71 2825.65 1179.07 2826 1176.43 C 2849.74 1067.53 2852.31 957.16 2835.59 852.82 C 2828.04 805.77 2816.58 759.95 2801.37 716.04 C 2841.45 815.66 2860.17 923.49 2851.32 1031.36 C 2851.3 1031.55 2851.29 1031.73 2851.28 1031.92 C 2848.87 1076.49 2839.52 1129 2824.89 1184.35 Z  M 2339.09 277.28 C 2333.83 275.82 2328.55 274.42 2323.26 273.09 C 2323.17 272.88 2323.08 272.68 2322.99 272.48 C 2328.38 274.01 2333.75 275.61 2339.09 277.28 Z " fill="rgb(185,166,166)"/><path d=" M 1627.04 514.21 C 1697.15 427.4 1777.57 360.66 1864.77 315.59 C 1918.46 290.49 1976.35 272.44 2037.5 262.08 C 2076.61 255.46 2115.75 252.2 2154.64 252.2 C 2191.65 252.2 2228.38 255.16 2264.54 260.98 C 2276.46 271.37 2290.47 287.79 2290.93 307.8 C 2290.82 307.94 2290.73 308.06 2290.63 308.2 C 2245.27 296.07 2198.55 288.92 2151 287.25 C 2151.2 287.85 2151.3 288.5 2151.35 289.1 C 2153.25 308.65 2117.3 328.1 2071.05 332.6 C 2064.56 333.23 2058.2 333.53 2052.08 333.53 C 2014.52 333.54 1985.43 322.17 1983.8 305.4 C 1983.75 305 1983.75 304.65 1983.75 304.25 C 1862.34 333.49 1740.27 400.77 1627.04 514.21 Z " fill="rgb(225,185,179)"/><path d=" M 1864.77 315.59 C 1936.31 278.62 2012.38 256.24 2091.06 249.34 C 2107.94 247.94 2124.96 247.24 2142.13 247.24 C 2180.02 247.24 2218.61 250.67 2257.69 257.59 C 2258.91 257.82 2260.1 258.04 2261.32 258.27 C 2262.37 259.12 2263.44 260.03 2264.54 260.98 C 2228.38 255.16 2191.65 252.2 2154.64 252.2 C 2115.75 252.2 2076.61 255.46 2037.5 262.08 C 1976.35 272.44 1918.46 290.49 1864.77 315.59 Z " fill="rgb(185,166,166)"/><path d=" M 1327.45 1642.44 C 1272.7 1724.09 1233.96 1817.17 1214.49 1914.61 C 1213.19 1921.18 1206.8 1925.44 1200.24 1924.13 C 1193.89 1922.87 1189.7 1916.82 1190.61 1910.49 C 1205.45 1809 1240.5 1710.03 1293.65 1621.06 L 1293.66 1621.04 C 1299.33 1611.55 1311.61 1608.46 1321.1 1614.12 C 1330.58 1619.79 1333.68 1632.07 1328.01 1641.56 C 1327.84 1641.84 1327.63 1642.17 1327.45 1642.44 Z " fill="rgb(79,32,32)"/><path d=" M 823.25 1512.5 C 799.5 1538.3 858.2 1567.15 877 1574.4 C 906.4 1584.3 923.2 1529.1 931.45 1508.4 C 931.05 1467.6 844.2 1493.6 823.25 1512.5 Z " fill="rgb(79,32,32)"/><path d=" M 1590.09 563.21 C 1556.28 795.62 1626.34 1059.93 1782.67 1289.18 C 1815.82 1339.38 1855.56 1384.85 1894 1428.82 L 1901.01 1436.85 C 1902.73 1438.81 1904.04 1441.08 1904.88 1443.54 C 1975.38 1650.13 2204.38 1741.79 2394.3 1725.52 C 2395.13 1725.45 2395.94 1725.43 2396.79 1725.47 C 2399.29 1725.57 2401.81 1725.62 2404.29 1725.62 C 2546.07 1725.63 2656.72 1565.98 2710.57 1469.66 C 2786.85 1333.2 2844.72 1153.19 2851.28 1031.92 C 2851.29 1031.73 2851.3 1031.55 2851.32 1031.36 C 2880.36 677.24 2612.43 323.62 2266.24 259.16 C 2003.2 209.23 1763.24 317.17 1590.09 563.21 Z  M 2351.34 1767.34 C 2157.61 1767.35 1941.05 1666.94 1868.33 1460.23 L 1863.88 1455.14 C 1824.57 1410.17 1783.92 1363.67 1749.46 1311.47 C 1586.62 1072.69 1514.31 796.01 1551.22 552.6 C 1551.69 549.57 1552.83 546.68 1554.59 544.17 C 1643.44 416.69 1749.93 323.5 1871.13 267.19 C 1996.61 208.9 2132.03 192.96 2273.63 219.85 C 2449.94 252.68 2612.11 356.06 2730.22 510.95 C 2848.89 666.58 2906.06 852.45 2891.2 1034.36 C 2878.68 1263.09 2679.02 1775.19 2396.47 1765.48 C 2381.63 1766.72 2366.54 1767.34 2351.34 1767.34 Z " fill="rgb(79,32,32)"/><path d=" M 1869.83 1467.06 C 1858.24 1435.91 1856.2 1401.46 1861.98 1369.04 C 1867.64 1336.48 1881.06 1305.76 1899.85 1279.18 C 1909.32 1265.91 1920.25 1253.74 1932.26 1242.82 C 1944.46 1232.11 1957.63 1222.47 1971.97 1214.92 C 2000.38 1199.54 2032.89 1191.65 2064.25 1193.79 C 2068.76 1194.1 2072.17 1198.01 2071.87 1202.52 C 2071.61 1206.28 2068.86 1209.27 2065.34 1209.99 L 2065.25 1210.01 C 2037.2 1215.76 2011.6 1227.23 1989.58 1243.29 C 1978.65 1251.42 1968.38 1260.35 1959.36 1270.45 C 1950.14 1280.34 1942.04 1291.22 1935 1302.67 C 1920.76 1325.5 1911.05 1350.92 1906.27 1376.92 C 1901.57 1402.98 1902.18 1429.59 1908.07 1455.34 L 1908.13 1455.6 C 1910.6 1466.39 1903.86 1477.13 1893.08 1479.6 C 1883.16 1481.87 1873.27 1476.35 1869.83 1467.06 Z " fill="rgb(79,32,32)"/><path d=" M 2175.22 1061.54 C 2184.68 1079.31 2195.99 1094.76 2209.66 1107.79 C 2223.26 1120.84 2238.94 1131.48 2255.9 1139.46 C 2272.89 1147.41 2291.16 1152.63 2309.97 1154.64 C 2328.82 1156.77 2348.06 1155.41 2367.81 1151.06 L 2368.14 1150.99 C 2373.99 1149.7 2379.78 1153.4 2381.06 1159.25 C 2382.04 1163.7 2380.13 1168.11 2376.59 1170.54 C 2357.11 1183.85 2333.06 1190.72 2308.96 1191.64 C 2284.79 1192.5 2260.43 1187.39 2238.41 1177.31 C 2216.37 1167.26 2196.56 1152.12 2181.43 1133.17 C 2166.34 1114.27 2155.89 1091.42 2153.38 1067.86 C 2152.71 1061.52 2157.3 1055.84 2163.64 1055.16 C 2168.45 1054.65 2172.89 1057.18 2175.04 1061.2 L 2175.22 1061.54 Z " fill="rgb(79,32,32)"/><path d=" M 2310.5 316.3 L 2310.55 316.3 L 2310.5 316.3 Z  M 1600.93 867.66 C 1622.99 936.26 1719.04 995.78 1811.34 997.85 C 1865.32 999.13 1963 981.12 2011.39 847.3 C 2037.49 775.06 2058.94 699.63 2079.68 626.69 L 2083.21 614.27 C 2123.73 472.05 2182.73 424.46 2230.13 386.22 C 2259.05 362.9 2280.09 345.93 2290.8 312.3 C 2292.7 288.38 2274.62 269.08 2261.32 258.27 C 2005.27 209.61 1761.07 320.56 1590.01 563.3 C 1575.6 659.45 1579.28 761.82 1600.93 867.66 Z  M 1816.52 1037.91 C 1814.5 1037.91 1812.48 1037.89 1810.44 1037.84 C 1700.29 1035.37 1589.04 963.96 1562.46 878.65 C 1562.26 878.02 1562.09 877.38 1561.96 876.73 C 1538.81 764.15 1535.18 655.08 1551.19 552.56 C 1551.66 549.56 1552.81 546.7 1554.55 544.21 C 1736.24 283.75 1998.32 165.514 2273.73 219.93 C 2276.69 220.52 2279.49 221.77 2281.9 223.59 C 2317.22 250.25 2334.43 284.01 2330.36 318.63 C 2330.23 319.81 2329.99 320.96 2329.65 322.09 C 2315.54 368.72 2286.25 392.35 2255.25 417.36 C 2210 453.85 2158.72 495.22 2121.68 625.23 L 2118.16 637.62 C 2097.23 711.23 2075.59 787.34 2049.01 860.9 C 2008.22 973.69 1923.69 1037.91 1816.52 1037.91 Z " fill="rgb(79,32,32)"/><path d=" M 2704.83 1477.27 C 2693.25 1477.27 2683.88 1473.67 2677.45 1470.11 C 2639.76 1449.23 2624.49 1387.59 2633.88 1343.12 C 2636.17 1332.31 2646.76 1325.41 2657.58 1327.68 C 2668.39 1329.96 2675.3 1340.57 2673.02 1351.38 C 2666.29 1383.25 2678.09 1424.73 2696.84 1435.12 C 2705.97 1440.19 2717.82 1435.81 2732.02 1422.1 C 2739.97 1414.44 2752.63 1414.66 2760.3 1422.62 C 2767.97 1430.57 2767.73 1443.23 2759.78 1450.9 C 2738.77 1471.16 2719.92 1477.27 2704.83 1477.27 Z " fill="rgb(79,32,32)"/><path d=" M 2584.58 1689.86 C 2580.93 1689.86 2577.23 1688.85 2573.91 1686.75 C 2564.58 1680.85 2561.79 1668.5 2567.7 1659.16 C 2597.34 1612.28 2595.71 1584.64 2593.44 1546.39 C 2590.74 1500.71 2587.38 1443.84 2632.81 1339.28 C 2637.21 1329.15 2649 1324.5 2659.12 1328.9 C 2669.25 1333.31 2673.89 1345.08 2669.5 1355.22 C 2627.87 1451.02 2630.79 1500.44 2633.37 1544.04 C 2635.77 1584.52 2638.03 1622.77 2601.51 1680.54 C 2597.7 1686.56 2591.21 1689.86 2584.58 1689.86 Z " fill="rgb(79,32,32)"/><path d=" M 2351.75 1445.25 C 2393.55 1474.95 2415.2 1500.25 2529.7 1547.3 C 2630 1588.5 2444.4 1765 2318.8 1704.45 C 2198.1 1648.05 2239.2 1376.6 2351.75 1445.25 Z " fill="rgb(79,32,32)"/><path d=" M 2004.5 1391.9 C 2004 1357.45 2058.1 1357.45 2057.6 1391.9 C 2058.1 1426.3 2004 1426.3 2004.5 1391.9 Z " fill="rgb(79,32,32)"/><path d=" M 2085.95 1453.05 C 2085.45 1418.6 2139.55 1418.6 2139.05 1453.05 C 2139.55 1487.5 2085.45 1487.5 2085.95 1453.05 Z " fill="rgb(79,32,32)"/><path d=" M 2011.65 1499 C 2011.3 1473.85 2050.8 1473.85 2050.45 1499 C 2050.8 1524.15 2011.3 1524.15 2011.65 1499 Z " fill="rgb(79,32,32)"/><path d=" M 1071.43 687.2 C 1059.81 687.2 1048.55 685.48 1037.82 682.01 C 1018.91 644.62 1012.06 601.88 1013.48 559.76 C 1066.08 588.3 1117.63 619.38 1167.38 652.56 C 1134.91 675.38 1101.93 687.2 1071.43 687.2 Z " fill="rgb(208,112,112)"/><path d=" M 1067.09 708.16 C 1062.57 708.16 1057.98 707.96 1053.3 707.55 C 1047.43 699.38 1042.29 690.85 1037.82 682.01 C 1048.55 685.48 1059.81 687.2 1071.43 687.2 C 1101.93 687.2 1134.91 675.38 1167.38 652.56 C 1117.63 619.38 1066.08 588.3 1013.48 559.76 C 1013.73 552.45 1014.22 545.15 1014.95 537.9 C 1079.1 572.25 1141.35 610.2 1201.35 651.45 C 1158.32 683.65 1117.35 708.16 1067.09 708.16 Z " fill="rgb(79,32,32)"/><path d=" M 1816.45 997.91 C 1814.71 997.91 1813 997.89 1811.34 997.85 C 1719.62 995.79 1624.19 937 1601.35 868.95 C 1588.05 803.89 1581.42 739.1 1581.77 675.78 C 1612.98 779.11 1690.28 835.97 1770.83 835.97 C 1853.41 835.97 1939.4 776.24 1982.7 645.55 C 2091.94 327.69 2187.74 442.84 2290.63 308.2 C 2290.71 308.22 2290.86 308.26 2290.94 308.28 C 2290.95 309.6 2290.91 310.94 2290.8 312.3 C 2280.09 345.93 2259.05 362.9 2230.13 386.22 C 2182.73 424.46 2123.73 472.05 2083.21 614.27 L 2079.68 626.69 C 2058.94 699.63 2037.49 775.06 2011.39 847.3 C 1964.48 977.01 1871.29 997.92 1816.45 997.91 Z " fill="rgb(161,70,58)"/><path d=" M 2290.94 308.28 C 2290.86 308.26 2290.71 308.22 2290.63 308.2 C 2290.73 308.06 2290.82 307.94 2290.93 307.8 C 2290.93 307.96 2290.94 308.12 2290.94 308.28 Z " fill="rgb(196,154,150)"/><path d=" M 1601.35 868.95 C 1601.21 868.52 1601.07 868.09 1600.93 867.66 C 1587.44 801.74 1580.93 737.17 1581.42 674.61 C 1581.54 675.01 1581.65 675.39 1581.77 675.78 C 1581.42 739.1 1588.05 803.89 1601.35 868.95 Z " fill="rgb(79,32,32)"/><path d=" M 1816.18 1017.89 C 1710.55 1017.89 1605.28 949.78 1581.25 872.7 C 1561.15 774.9 1555.35 675.7 1567.35 579.75 C 1568.03 614.67 1573.01 646.37 1581.42 674.61 C 1580.93 737.17 1587.44 801.74 1600.93 867.66 C 1601.07 868.09 1601.21 868.52 1601.35 868.95 C 1624.19 937 1719.62 995.79 1811.34 997.85 C 1813 997.89 1814.71 997.91 1816.45 997.91 C 1871.29 997.92 1964.48 977.01 2011.39 847.3 C 2037.49 775.06 2058.94 699.63 2079.68 626.69 L 2083.21 614.27 C 2123.73 472.05 2182.73 424.46 2230.13 386.22 C 2259.05 362.9 2280.09 345.93 2290.8 312.3 C 2290.91 310.94 2290.95 309.6 2290.94 308.28 C 2290.94 308.12 2290.93 307.96 2290.93 307.8 C 2296.06 301.06 2301.23 293.68 2306.4 285.6 C 2309.95 295.25 2311.45 305.55 2310.2 316.3 C 2279.3 418.25 2166.7 393.1 2102.15 619.75 C 2079.75 698.45 2057.7 777.1 2029.9 854.1 C 1986.7 973.62 1901.32 1017.89 1816.18 1017.89 Z " fill="rgb(79,32,32)"/><path d=" M 1193.79 1162.94 C 1196.37 1190.11 1189.9 1218.34 1177.2 1243.14 C 1164.48 1268.03 1145.61 1289.69 1123.05 1306.12 C 1100.51 1322.58 1074.19 1333.97 1046.7 1338.58 C 1019.28 1343.1 990.55 1340.89 965.49 1330.36 C 959.12 1327.68 956.13 1320.36 958.81 1313.99 C 960.84 1309.15 965.56 1306.26 970.51 1306.33 L 970.9 1306.34 C 994.21 1306.69 1016.24 1303.8 1037.03 1297.04 C 1057.8 1290.42 1077.22 1280.32 1094.57 1267.43 C 1111.88 1254.5 1127.12 1238.87 1139.46 1221.01 C 1151.86 1203.12 1161.12 1183.09 1167.68 1160.85 L 1167.8 1160.44 C 1169.88 1153.39 1177.27 1149.37 1184.31 1151.44 C 1189.67 1153.02 1193.28 1157.71 1193.79 1162.94 Z " fill="rgb(79,32,32)"/><path d=" M 681.61 1427.31 C 676.67 1447.13 664.78 1465.35 649.36 1479.41 C 633.91 1493.54 614.9 1503.7 594.71 1509.1 C 574.53 1514.54 553.04 1515.32 532.62 1510.95 C 512.28 1506.57 492.9 1496.93 478.64 1482.46 C 474.41 1478.18 474.46 1471.27 478.75 1467.04 C 481.83 1464.01 486.25 1463.18 490.07 1464.54 L 490.51 1464.7 C 506.51 1470.43 522.08 1473.69 537.73 1474.28 C 553.32 1474.94 568.83 1473.05 583.69 1468.89 C 598.54 1464.68 612.73 1458.29 625.69 1449.73 C 638.71 1441.17 650.3 1430.47 661.11 1417.49 L 661.44 1417.09 C 665.54 1412.17 672.85 1411.5 677.77 1415.6 C 681.3 1418.54 682.64 1423.14 681.61 1427.31 Z " fill="rgb(79,32,32)"/></g></g></svg>